<?xml version="1.0" standalone="no"?>
<!DOCTYPE svg PUBLIC "-//W3C//DTD SVG 20010904//EN"
 "http://www.w3.org/TR/2001/REC-SVG-20010904/DTD/svg10.dtd">
<svg version="1.0" xmlns="http://www.w3.org/2000/svg"
 width="700.000000pt" height="700.000000pt" viewBox="0 0 700.000000 700.000000"
 preserveAspectRatio="xMidYMid meet">
<metadata>
Created by potrace 1.11, written by Peter Selinger 2001-2013
</metadata>
<g transform="translate(0.000000,700.000000) scale(0.100000,-0.100000)"
fill="#000000" stroke="none">
<path d="M5430 6709 c-111 -9 -208 -22 -380 -50 -101 -16 -133 -26 -165 -48
-22 -16 -113 -67 -201 -114 -296 -156 -686 -420 -1059 -715 -568 -450 -1692
-1506 -2144 -2015 -57 -65 -106 -117 -109 -117 -10 0 18 407 73 1080 56 681
59 735 59 985 1 279 -16 413 -68 567 -40 117 -84 193 -152 264 -128 132 -235
150 -275 46 -42 -108 -133 -796 -178 -1342 -53 -630 -101 -1641 -101 -2102 l0
-163 -41 -95 c-100 -229 -202 -606 -314 -1150 -37 -179 -87 -410 -112 -515
-69 -289 -69 -407 1 -550 35 -70 106 -150 216 -241 96 -80 300 -154 422 -154
81 0 89 8 113 115 39 168 46 272 55 835 9 540 15 653 46 850 29 185 90 385
157 516 33 64 921 1075 1378 1569 485 524 969 973 1369 1271 164 122 795 575
922 662 276 190 470 273 878 378 251 64 310 91 310 139 0 47 -66 77 -206 94
-100 12 -351 12 -494 0z"/>
<path d="M5535 5859 c-44 -5 -138 -20 -210 -34 -406 -78 -735 -222 -1170 -510
-299 -197 -580 -429 -853 -705 -878 -883 -1339 -1902 -1281 -2830 35 -568 248
-966 664 -1242 402 -266 891 -324 1510 -178 147 35 225 63 374 139 152 76 279
155 426 265 130 98 333 289 419 395 125 154 222 329 266 481 29 101 38 297 17
395 -8 39 -14 71 -13 72 0 1 75 7 166 14 98 7 249 10 372 7 235 -7 248 -3 248
58 0 79 -119 254 -232 339 -191 145 -444 201 -804 177 -196 -13 -322 -30 -814
-107 -538 -84 -735 -107 -1042 -121 -128 -5 -151 -9 -174 -27 -35 -27 -28 -67
27 -161 93 -157 256 -280 444 -334 228 -66 459 -56 1089 49 99 16 186 29 193
27 10 -2 -5 -35 -52 -113 -327 -539 -835 -999 -1313 -1189 -171 -68 -268 -89
-432 -90 -163 -1 -216 10 -332 71 -228 119 -348 423 -348 883 0 973 526 2022
1420 2831 589 533 1291 935 1769 1014 208 35 327 1 383 -109 17 -34 20 -53 16
-130 -6 -116 -33 -197 -155 -481 -173 -400 -215 -542 -215 -729 0 -131 18
-211 69 -309 43 -81 133 -176 222 -235 119 -79 161 -56 241 130 96 224 201
461 290 648 103 217 134 303 156 431 73 417 -204 889 -651 1112 -183 92 -419
124 -690 96z"/>
</g>
</svg>
